<svg id="Camada_1" data-name="Camada 1" xmlns="http://www.w3.org/2000/svg" viewBox="0 0 561.65 102.37"><defs><style>.cls-1{fill:#fff;}.cls-2{fill:#30a9c2;}</style></defs><title>sBoticsLogo</title><circle class="cls-1" cx="199.8" cy="49.05" r="9.45"/><circle class="cls-1" cx="229.31" cy="48.06" r="9.12"/><ellipse class="cls-1" cx="216.13" cy="73.5" rx="25.31" ry="10.27"/><path class="cls-2" d="M206.87,302.68a22.17,22.17,0,0,1-2.92-2,14.26,14.26,0,0,1-4.9-8.15,9.16,9.16,0,0,1,4.68-10.11,13.55,13.55,0,0,1,8.16-1.59,8.55,8.55,0,0,1,6.19,3.72,12,12,0,0,1,1,12.84,9.48,9.48,0,0,1-5,4.57c-.42.18-.85.34-1.25.5-.42,2.37-.39,8.73.11,9.74.69-.58,1.37-1.13,2-1.69a38.65,38.65,0,0,1,18.1-8.92c14.38-2.71,27,.75,37.73,10.92l.74.69a101.39,101.39,0,0,0-.1-10.62,2.24,2.24,0,0,0-.89-.43c-5.35-2-7.31-7.15-6.74-11.83a11.53,11.53,0,0,1,2.52-6.09,9,9,0,0,1,7.1-3.48,14.6,14.6,0,0,1,5.66,1,9.3,9.3,0,0,1,5.9,11.37,14.26,14.26,0,0,1-6.61,8.84,2.14,2.14,0,0,0-1.13,2.11c.07,4.54.07,9.07.09,13.6a4,4,0,0,1-.07,1.38,2.67,2.67,0,0,0,.42,2.47,40.39,40.39,0,0,1,5.22,17.06A39.56,39.56,0,0,1,277.18,363c-6.64,10.76-16.22,17.5-28.77,19.47-13.93,2.18-26-1.9-36-11.75a35.57,35.57,0,0,1-8.6-12.9,42,42,0,0,1-3-17.85c.52-6.93,1.93-13.63,5.77-19.59a2.39,2.39,0,0,0,.35-1.52c-.06-2.18,0-4.36,0-6.54C206.88,309.17,206.87,306,206.87,302.68Zm35.6,45.05H226.6c-.38,0-.76,0-1.13,0a1.65,1.65,0,0,0-1.62,1.33,4.05,4.05,0,0,0,.54,3.37,13.75,13.75,0,0,0,3.45,3.8,25,25,0,0,0,11.07,4.86,13.27,13.27,0,0,0,4.61.42,36.13,36.13,0,0,0,3.71-.69,23.64,23.64,0,0,0,10.9-5.47,13.62,13.62,0,0,0,2.41-2.89,4.45,4.45,0,0,0,.65-2.89,1.82,1.82,0,0,0-2-1.85H242.47Zm-16-23.77h-.88a4.13,4.13,0,0,0-4.26,2.85,7.39,7.39,0,0,0-.19,5.16,4.56,4.56,0,0,0,2.92,3.06,12.46,12.46,0,0,0,1.69.47,5.29,5.29,0,0,0,5.47-2,5.56,5.56,0,0,0,.59-6.26c-1-2-2.39-3.57-5-3.28C226.75,324,226.62,324,226.49,324Zm31.29,0c-2.18-.49-3.62.65-4.82,2.23a5.79,5.79,0,0,0,3.61,9.38,7.09,7.09,0,0,0,3.44-.5,4.78,4.78,0,0,0,3.13-3.5,7.24,7.24,0,0,0-.1-4.2,4.31,4.31,0,0,0-4.63-3.41Z" transform="translate(-26.86 -280.71)"/><path class="cls-2" d="M115.9,371.4V295a1.31,1.31,0,0,1,1-.2h19.65a21.37,21.37,0,0,1,8.6,1.63c6.31,2.74,9.8,7.59,10.32,14.44a18.66,18.66,0,0,1-12.13,19.7,2.87,2.87,0,0,0-1,.49,13.67,13.67,0,0,0,2.72.55c5.62,1.24,9.9,4.23,12.46,9.47a18.32,18.32,0,0,1,1.73,7.67,22.59,22.59,0,0,1-1.76,10c-3.07,6.85-8.42,10.81-15.74,12.19a31.79,31.79,0,0,1-6,.48H115.9Zm5.4-4.86a5.6,5.6,0,0,0,.59.07c4.75,0,9.49,0,14.24,0a24.5,24.5,0,0,0,6.58-.94c4.76-1.4,8.26-4.22,10-9a19.46,19.46,0,0,0,1-8.05c-.41-6.23-3.49-10.52-9.4-12.71a31.47,31.47,0,0,0-10.88-1.77c-3.73,0-7.47,0-11.21,0a2.09,2.09,0,0,0-1,.1C121,335.37,121,365.53,121.3,366.54Zm-.13-37.29a6.37,6.37,0,0,0,.64.08c3.61,0,7.23.05,10.84,0a21.52,21.52,0,0,0,7.63-1.44c4.81-1.95,8.12-5.25,9.35-10.41a18.68,18.68,0,0,0,.33-6c-.5-5.75-3.85-9.62-9.46-11a26.18,26.18,0,0,0-6-.74c-4.12,0-8.23,0-12.35,0-.32,0-.67-.11-1,.24Z" transform="translate(-26.86 -280.71)"/><path class="cls-2" d="M26.87,363a23,23,0,0,0,6.54,3.71,19.82,19.82,0,0,0,13,.67,9.51,9.51,0,0,0,6.51-12A8,8,0,0,0,50.83,352a20.56,20.56,0,0,0-4.8-3.42c-1.4-.77-2.84-1.45-4.3-2.1a38.73,38.73,0,0,1-10-5.81,13.2,13.2,0,0,1-4.62-11.45c.45-6.49,4.32-10.33,10-12.6a21.57,21.57,0,0,1,10-1.19,23.77,23.77,0,0,1,8.46,2.25,1.58,1.58,0,0,1,1.06,1.73c-.08,1.38,0,2.76,0,4.11-.39.24-.6-.05-.83-.19a22.32,22.32,0,0,0-10.8-3.42c-3.86-.16-7.41.61-10.31,3.44-3.65,3.56-3.47,11.23,1,14.32a45,45,0,0,0,6.92,3.85A78.1,78.1,0,0,1,52.88,347c7.33,4.79,6.57,15.53,1.75,20.39a17.22,17.22,0,0,1-9.69,4.95,27.51,27.51,0,0,1-12.59-.68,20.66,20.66,0,0,1-4.68-2.15,1.45,1.45,0,0,1-.81-1.42C26.9,366.53,26.87,364.94,26.87,363Z" transform="translate(-26.86 -280.71)"/><path class="cls-2" d="M557.06,363.09c.73.52,1.25,1,1.82,1.3a22.54,22.54,0,0,0,13.6,3.76,17.71,17.71,0,0,0,4.08-.71c4.28-1.32,6.56-4.31,6.83-8.79a8.69,8.69,0,0,0-3.67-7.84,37.25,37.25,0,0,0-7.67-4.29,46.6,46.6,0,0,1-8.82-4.83,13.87,13.87,0,0,1-4.8-5.72c-2.44-5.84-1.39-13.74,6.09-18a21.41,21.41,0,0,1,12.76-2.54,23.42,23.42,0,0,1,8.6,2.25,1.58,1.58,0,0,1,1.06,1.73c-.08,1.38,0,2.76,0,4.12-.39.26-.6-.05-.82-.18a22.33,22.33,0,0,0-10.8-3.43c-3.86-.16-7.41.61-10.32,3.44-3.65,3.55-3.47,11.23,1,14.31a44.51,44.51,0,0,0,6.91,3.86,75.05,75.05,0,0,1,10.27,5.59c7.13,4.72,6.43,15.13,2,19.93a16.85,16.85,0,0,1-10,5.33,27.37,27.37,0,0,1-12.59-.67,20.47,20.47,0,0,1-4.68-2.15,1.44,1.44,0,0,1-.82-1.41C557.09,366.54,557.06,365,557.06,363.09Z" transform="translate(-26.86 -280.71)"/><path class="cls-2" d="M504,364c0,1.53,0,3,0,4.38,0,.58-.34.81-.75,1a23.43,23.43,0,0,1-6.91,2.62,29.94,29.94,0,0,1-13.12,0c-6.65-1.57-11.45-5.59-14.78-11.45A28,28,0,0,1,465,349a35.87,35.87,0,0,1,1.7-15.76c3.09-8.26,8.6-14.16,17.18-16.76a28.74,28.74,0,0,1,19.49,1.06c.26.11.52.25.81.4v5.3c-.53.08-.88-.29-1.26-.49a23.67,23.67,0,0,0-11.23-2.89c-10.71-.13-17.13,6.44-20,14.1a31.61,31.61,0,0,0-1.63,13.75A25.65,25.65,0,0,0,473,358.18c2.79,5.09,6.88,8.59,12.69,9.63a23.9,23.9,0,0,0,16.86-3A5.49,5.49,0,0,1,504,364Z" transform="translate(-26.86 -280.71)"/><path class="cls-2" d="M350,370.57a15.51,15.51,0,0,1-11.76,1.14,9.43,9.43,0,0,1-5.69-4.84,17.55,17.55,0,0,1-1.73-7c-.06-.88,0-1.76,0-2.65q0-17.24,0-34.48a5,5,0,0,0-.12-1.6H321c-.16-1.54-.06-2.95-.08-4.48h9.77c0-1.28,0-2.43,0-3.59s0-2.35,0-3.52V302.4a50.55,50.55,0,0,1,4.83-1.63c.06,1.36,0,2.64,0,3.91s0,2.6,0,3.9v7.92c1.65.12,3.23.05,4.81.06h9.48v4.5H336a1.33,1.33,0,0,0-.35,1.2c0,11.75,0,23.5,0,35.24a20.33,20.33,0,0,0,.68,5.48,6.3,6.3,0,0,0,6.21,4.95,12.48,12.48,0,0,0,6.1-1.24l1.26-.58C350.07,367.65,349.92,369.08,350,370.57Z" transform="translate(-26.86 -280.71)"/><path class="cls-2" d="M403.67,316.56h4.72v54.76h-4.72Z" transform="translate(-26.86 -280.71)"/><path class="cls-2" d="M406,303a4.07,4.07,0,0,1-4.07-4.19,4,4,0,0,1,4.16-3.94,3.9,3.9,0,0,1,4.07,4A4.16,4.16,0,0,1,406,303Z" transform="translate(-26.86 -280.71)"/></svg>